<svg xmlns="http://www.w3.org/2000/svg" width="224" height="224"><g transform="translate(-494 -446)"><rect data-name="Search Box" width="224" height="224" rx="30" transform="translate(494 446)" fill="#f7f8fa"/><g data-name="Group 334" fill="#131111"><path data-name="Icon awesome-plus" d="M615.571 528.857h-6.428v-6.428a1.429 1.429 0 00-1.429-1.429h-1.428a1.429 1.429 0 00-1.429 1.429v6.429h-6.428a1.429 1.429 0 00-1.429 1.428v1.429a1.429 1.429 0 001.429 1.429h6.428v6.429a1.429 1.429 0 001.429 1.427h1.429a1.429 1.429 0 001.429-1.429v-6.428h6.429a1.429 1.429 0 001.427-1.429v-1.428a1.429 1.429 0 00-1.429-1.429z"/><text data-name="Tambah Foto" transform="translate(540 588)" font-size="20" font-family="Poppins-Regular, Poppins"><tspan x="0" y="0">Tambah Foto</tspan></text></g></g></svg>