<svg id="icon-prospective-member" xmlns="http://www.w3.org/2000/svg" width="17" height="16.998" viewBox="0 0 17 16.998">
  <path id="Path_11127" data-name="Path 11127" d="M20.184,19.186l-.762-.762L18.2,17.2l1.972-1.972a.707.707,0,0,0-.258-1.164l-6.343-2.3a1.414,1.414,0,0,0-1.811,1.81l2.308,6.343a.707.707,0,0,0,1.164.258L17.2,18.2l1.221,1.221.762.762a.707.707,0,1,0,1-1Z" transform="translate(-3.391 -3.393)" fill="#fff"/>
  <path id="Path_11128" data-name="Path 11128" d="M7.072,14.144a7.072,7.072,0,1,1,7.072-7.072.707.707,0,0,1-1.414,0A5.658,5.658,0,1,0,7.072,12.73a.707.707,0,0,1,0,1.414Z" fill="#fff"/>
  <path id="Path_11129" data-name="Path 11129" d="M6.889,12.219a.707.707,0,0,1-.271-.054,4.243,4.243,0,1,1,5.549-5.54.707.707,0,1,1-1.307.54,2.829,2.829,0,1,0-3.7,3.7.707.707,0,0,1-.272,1.361Z" transform="translate(-1.163 -1.163)" fill="#fff"/>
</svg>
