<svg id="icon-existing-member" xmlns="http://www.w3.org/2000/svg" width="17" height="17" viewBox="0 0 17 17">
  <path id="Path_11180" data-name="Path 11180" d="M13.458,0H3.542A3.546,3.546,0,0,0,0,3.542v9.917A3.546,3.546,0,0,0,3.542,17V14.875a4.958,4.958,0,0,1,9.917,0V17A3.546,3.546,0,0,0,17,13.458V3.542A3.546,3.546,0,0,0,13.458,0ZM8.5,8.5a2.833,2.833,0,1,1,2.833-2.833A2.833,2.833,0,0,1,8.5,8.5Z" fill="#fff"/>
  <circle id="Ellipse_23" data-name="Ellipse 23" cx="1.458" cy="1.458" r="1.458" transform="translate(7.042 4.225)" fill="#fff"/>
  <path id="Path_11181" data-name="Path 11181" d="M10.645,16A3.649,3.649,0,0,0,7,19.645v2.187h7.29V19.645A3.649,3.649,0,0,0,10.645,16Z" transform="translate(-2.145 -4.832)" fill="#fff"/>
</svg>
