<svg id="icon-type-kendaraan" xmlns="http://www.w3.org/2000/svg" width="17" height="17" viewBox="0 0 17 17">
  <path id="Path_11264" data-name="Path 11264" d="M6.671,2,5.333,1.991A2,2,0,0,0,3.333,0H2A2,2,0,0,0,0,2V3.333a2,2,0,0,0,2,2L1.986,6.662a.667.667,0,0,0,.663.671h0a.667.667,0,0,0,.667-.662l.009-1.338h0a2,2,0,0,0,2-2V3.324l1.329.009h0A.667.667,0,0,0,6.671,2Z" fill="#fff"/>
  <path id="Path_11265" data-name="Path 11265" d="M18.332,0H17a2,2,0,0,0-2,2l-1.329-.009h0a.667.667,0,1,0,0,1.333L15,3.329v0a2,2,0,0,0,2,2h.009L17,6.662a.667.667,0,0,0,.662.671h0a.667.667,0,0,0,.667-.662l.009-1.338a2,2,0,0,0,1.991-2V2A2,2,0,0,0,18.332,0Z" transform="translate(-3.332)" fill="#fff"/>
  <path id="Path_11266" data-name="Path 11266" d="M18.337,15l.009-1.329A.667.667,0,0,0,17.683,13h0a.667.667,0,0,0-.667.662L17,15h0a2,2,0,0,0-2,2v.009L13.67,17h0a.667.667,0,0,0,0,1.333L15,18.343a2,2,0,0,0,2,1.991h1.333a2,2,0,0,0,2-2V17a2,2,0,0,0-2-2Z" transform="translate(-3.332 -3.333)" fill="#fff"/>
  <path id="Path_11267" data-name="Path 11267" d="M6.671,17.014,5.333,17v0a2,2,0,0,0-2-2H3.324l.009-1.329A.667.667,0,0,0,2.671,13h0A.667.667,0,0,0,2,13.662L1.991,15A2,2,0,0,0,0,17v1.333a2,2,0,0,0,2,2H3.333a2,2,0,0,0,2-2l1.329.009h0a.667.667,0,0,0,0-1.333Z" transform="translate(0 -3.333)" fill="#fff"/>
</svg>
