<svg xmlns="http://www.w3.org/2000/svg" width="17" height="13.881" viewBox="0 0 17 13.881">
  <g id="icon-model-kendaraan" transform="translate(-0.001 -3.153)">
    <path id="Union_1" data-name="Union 1" d="M-1765.363-6397.163a4.251,4.251,0,0,1,4.3-4.2,4.251,4.251,0,0,1,4.3,4.2,4.25,4.25,0,0,1-4.3,4.2A4.25,4.25,0,0,1-1765.363-6397.163Zm9.823-1.4a5.6,5.6,0,0,0-4.713-4.146v-2.846a.7.7,0,0,1,.7-.7h6.295a.7.7,0,0,1,.7.7v6.295a.7.7,0,0,1-.7.7Zm-13.32,0a.7.7,0,0,1-.6-.349.7.7,0,0,1,0-.7l3.976-6.886a.7.7,0,0,1,.6-.351.7.7,0,0,1,.606.351l2.206,3.818a5.61,5.61,0,0,0-4.507,4.116Z" transform="translate(1769.559 6410)" fill="#fff"/>
  </g>
</svg>
