<svg xmlns="http://www.w3.org/2000/svg" width="15.583" height="17" viewBox="0 0 15.583 17">
  <g id="icon-dealer" transform="translate(-1)">
    <path id="Path_11196" data-name="Path 11196" d="M11.625,13a3.539,3.539,0,0,1-5.667,0A3.508,3.508,0,0,1,1,13.693v3.562A3.548,3.548,0,0,0,4.542,20.8h8.5a3.548,3.548,0,0,0,3.542-3.545V13.691A3.508,3.508,0,0,1,11.625,13Z" transform="translate(0 -3.8)" fill="#fff"/>
    <path id="Path_11197" data-name="Path 11197" d="M15.662,2.22A2.816,2.816,0,0,0,12.894,0h-.561V2.127a.708.708,0,1,1-1.417,0V0H6.667V2.127a.708.708,0,1,1-1.417,0V0H4.689A2.816,2.816,0,0,0,1.921,2.221l-.905,4.09L1,7.1a2.125,2.125,0,1,0,4.25-.014.708.708,0,1,1,1.417,0,2.125,2.125,0,1,0,4.25,0,.708.708,0,1,1,1.417,0,2.125,2.125,0,1,0,4.25,0V6.458Z" transform="translate(0 0)" fill="#fff"/>
  </g>
</svg>
