<svg xmlns="http://www.w3.org/2000/svg" width="14.119" height="17" viewBox="0 0 14.119 17">
  <g id="icon-popup" transform="translate(-53 -176)">
    <path id="Path_101" data-name="Path 101" d="M14.706,5.783h4.617A4.909,4.909,0,0,0,18.2,4.043L15.74,1.582A4.925,4.925,0,0,0,14,.46V5.077A.706.706,0,0,0,14.706,5.783Z" transform="translate(47.471 175.866)" fill="#0479e6"/>
    <path id="Path_102" data-name="Path 102" d="M16.1,7.083H11.177A2.121,2.121,0,0,1,9.059,4.958V.017C8.946.009,8.832,0,8.717,0H5.53A3.54,3.54,0,0,0,2,3.542v9.917A3.54,3.54,0,0,0,5.53,17h7.059a3.54,3.54,0,0,0,3.53-3.542V7.427C16.119,7.311,16.11,7.2,16.1,7.083Z" transform="translate(51 176)" fill="#0479e6"/>
  </g>
</svg>
