<svg xmlns="http://www.w3.org/2000/svg" width="11.291" height="15.055" viewBox="0 0 11.291 15.055">
  <path id="icon-banner" d="M11.155.188a3.116,3.116,0,0,1,1.179.73l1.039,1.04A3.108,3.108,0,0,1,14.1,3.136H11.155ZM9.9,7.527H7.391a.627.627,0,0,0,0,1.255H9.9a.627.627,0,1,0,0-1.255Zm1.255-3.136A1.255,1.255,0,0,1,9.9,3.136V0H6.136A3.14,3.14,0,0,0,3,3.136v8.782a3.14,3.14,0,0,0,3.136,3.136h5.018a3.14,3.14,0,0,0,3.136-3.136V4.391Zm0,8.155H6.136a.627.627,0,1,1,0-1.255h5.018a.627.627,0,1,1,0,1.255ZM9.9,10.037H7.391a1.882,1.882,0,0,1,0-3.764H9.9a1.882,1.882,0,0,1,0,3.764Z" transform="translate(-3)" fill="#0479e6"/>
</svg>
