<svg xmlns="http://www.w3.org/2000/svg" width="14.167" height="17" viewBox="0 0 14.167 17">
  <g id="icon-cabang" transform="translate(-2)">
    <path id="Path_11068" data-name="Path 11068" d="M9,16.022a4.906,4.906,0,0,1-4.9-4.9v-6.3c0-.14.009-.28.021-.414A3.5,3.5,0,0,0,2,7.622v7a3.5,3.5,0,0,0,3.5,3.5H9.7A3.5,3.5,0,0,0,12.914,16c-.14.012-.274.021-.414.021Z" transform="translate(0 -1.122)" fill="#0479e6"/>
    <path id="Path_11069" data-name="Path 11069" d="M20.208,2.38,18.61.729A2.1,2.1,0,0,0,18,.3V2.89h2.562a2.091,2.091,0,0,0-.353-.51Z" transform="translate(-4.633 -0.09)" fill="#0479e6"/>
    <path id="Path_11070" data-name="Path 11070" d="M17,2.809a.7.7,0,0,0,.7.7h2.776a2.087,2.087,0,0,0-.568-1.21L18.31.648A2.108,2.108,0,0,0,17,.029Z" transform="translate(-4.333 -0.009)" fill="#0479e6"/>
    <path id="Path_11071" data-name="Path 11071" d="M12.6,2.8V0H10.5A3.5,3.5,0,0,0,7,3.5V9.8a3.5,3.5,0,0,0,3.5,3.5H14a3.5,3.5,0,0,0,3.5-3.5V4.9H14.7a2.1,2.1,0,0,1-2.1-2.1Z" transform="translate(-1.333)" fill="#0479e6"/>
  </g>
</svg>
