<svg id="Capa_1" enable-background="new 0 0 512 512" height="512" viewBox="0 0 512 512" width="512" xmlns="http://www.w3.org/2000/svg" xmlns:xlink="http://www.w3.org/1999/xlink"><linearGradient id="SVGID_1_" gradientUnits="userSpaceOnUse" x1="256" x2="256" y1="512" y2="0"><stop offset="0" stop-color="#ffe59a"/><stop offset="1" stop-color="#ffffd5"/></linearGradient><linearGradient id="SVGID_2_" gradientUnits="userSpaceOnUse" x1="256" x2="256" y1="407" y2="105"><stop offset="0" stop-color="#ffde00"/><stop offset="1" stop-color="#fd5900"/></linearGradient><g><g><circle cx="256" cy="256" fill="url(#SVGID_1_)" r="256"/></g><g><g><path d="m398.118 371.434h-117.107c-2.683-7.532-8.604-13.459-16.128-16.145v-19.421h115.471c3.175 0 6.124-1.702 7.703-4.463s1.579-6.156-.035-8.909l-124.354-213.393c-3.192-5.47-12.144-5.47-15.336 0l-124.353 213.394c-1.613 2.752-1.613 6.147-.035 8.909s4.528 4.463 7.703 4.463h115.471v19.421c-7.525 2.686-13.445 8.613-16.128 16.145h-117.108c-4.91 0-8.882 3.977-8.882 8.891s3.973 8.891 8.882 8.891h117.107c3.679 10.327 13.446 17.783 25.011 17.783s21.332-7.456 25.011-17.783h117.107c4.91 0 8.882-3.977 8.882-8.891s-3.973-8.892-8.882-8.892zm-151-186.719c0-4.915 3.973-8.891 8.882-8.891s8.882 3.977 8.882 8.891v71.131c0 4.915-3.973 8.891-8.882 8.891s-8.882-3.977-8.882-8.891zm8.882 115.588c-4.905 0-8.882-3.981-8.882-8.891 0-4.911 3.977-8.891 8.882-8.891s8.882 3.98 8.882 8.891c0 4.91-3.977 8.891-8.882 8.891z" fill="url(#SVGID_2_)"/></g></g></g></svg>