<svg height="512" width="512" xmlns="http://www.w3.org/2000/svg"><linearGradient id="a" gradientUnits="userSpaceOnUse" x1="256" x2="256" y1="481" y2="91.01"><stop offset="0" stop-color="#ffe59a"/><stop offset="1" stop-color="#ffffd5"/></linearGradient><linearGradient id="b" gradientUnits="userSpaceOnUse" x1="256" x2="256" y1="481" y2="31"><stop offset="0" stop-color="#fd5900"/><stop offset="1" stop-color="#ffde00"/></linearGradient><path d="M189.906 172.094l29.414 29.385C224.74 207.543 232.621 211 241 211s16.26-3.457 21.094-8.906l59.707-59.707c12.401-11.778 11.914-31.492.586-42.188-11.72-12.34-31.34-12.057-42.451-.322l-38.994 38.73-8.555-8.408c-11.778-12.401-31.492-11.914-42.188-.586-12.31 11.692-12.095 31.303-.293 42.481zm257.593 193.405c-4.656-4.9-52.605-25.81-73.125-30.038L509.001 187c-2.701-3.602-6.901-6-12.001-6H350.799c-5.7 0-11.1 3.3-13.499 8.699C322.301 220.898 290.501 241 256 241s-66.301-20.102-81.301-51.301C172.3 184.3 166.901 181 161.2 181H15c-5.099 0-9.3 2.398-12.001 6L134.88 332.434c-21.755-2.648-65.921-1.627-70.379 3.065L0 460v6c0 8.399 6.599 15 15 15h6l125.499-64.501c4.562-4.333 5.654-45.591 3.28-67.635L256 466l106.22-117.136c-2.374 22.043-1.281 63.302 3.28 67.635L491 481h6c8.401 0 15-6.601 15-15v-6z" fill="url(#a)"/><path d="M417.499 365.499L512 460V196c0-3.3-1.199-6.601-2.999-9L256 376 2.999 187C1.199 189.399 0 192.7 0 196v264l94.501-94.5c5.7-5.999 15.298-5.999 20.999 0 6 5.7 6 15.3 0 21L21 481h470l-94.499-94.501c-6-5.7-6-15.3 0-21 5.7-5.999 15.298-5.999 20.998 0zM256 271c66.301 0 120-53.701 120-120 0-66.301-53.699-120-120-120S135 84.699 135 151c0 66.299 54.699 120 121 120zm-55.499-130.501c5.7-5.999 15.298-5.999 20.999 0l19.501 19.2 49.501-49.2c5.7-5.999 15.298-5.999 20.999 0 6 5.7 6 15.3 0 21l-60 60C248.8 194.5 244.9 196 241 196s-7.8-1.5-10.499-4.501l-30-30c-6.001-5.7-6.001-15.3 0-21z" fill="url(#b)"/></svg>